<svg xmlns="http://www.w3.org/2000/svg" xml:space="preserve" width="128" height="128" viewBox="0 0 24 24"><path d="M18.5 24h-13A2.503 2.503 0 0 1 3 21.5v-19C3 1.122 4.122 0 5.5 0h13C19.878 0 21 1.122 21 2.5v19c0 1.378-1.122 2.5-2.5 2.5zM5.5 1C4.673 1 4 1.673 4 2.5v19c0 .827.673 1.5 1.5 1.5h13c.827 0 1.5-.673 1.5-1.5v-19c0-.827-.673-1.5-1.5-1.5h-13z"/><path d="M17.5 16h-11a.5.5 0 0 1 0-1h11a.5.5 0 0 1 0 1zM17.5 20h-11a.5.5 0 0 1 0-1h11a.5.5 0 0 1 0 1zM12 7c-1.103 0-2-.897-2-2s.897-2 2-2 2 .897 2 2-.897 2-2 2zm0-3c-.551 0-1 .449-1 1s.449 1 1 1 1-.449 1-1-.449-1-1-1zM15.5 12a.5.5 0 0 1-.5-.5v-1c0-.827-.673-1.5-1.5-1.5h-3C9.673 9 9 9.673 9 10.5v1a.5.5 0 0 1-1 0v-1C8 9.122 9.122 8 10.5 8h3c1.378 0 2.5 1.122 2.5 2.5v1a.5.5 0 0 1-.5.5z"/></svg>